<mxfile host="Electron" modified="2023-06-16T05:52:24.780Z" agent="Mozilla/5.0 (Windows NT 10.0; Win64; x64) AppleWebKit/537.36 (KHTML, like Gecko) draw.io/21.2.8 Chrome/112.0.5615.165 Electron/24.2.0 Safari/537.36" etag="uDkZhJ8QMfLnIKeCCl4d" version="21.2.8" type="device">
  <diagram name="第 1 页" id="U35A16tIG5GhBWRkFh6K">
    <mxGraphModel dx="1960" dy="1288" grid="1" gridSize="10" guides="1" tooltips="1" connect="1" arrows="1" fold="1" page="1" pageScale="1" pageWidth="827" pageHeight="1169" math="0" shadow="0">
      <root>
        <mxCell id="0" />
        <mxCell id="1" parent="0" />
        <mxCell id="h3Wn88nU72RHJNOeFfKn-53" value="" style="whiteSpace=wrap;html=1;" vertex="1" parent="1">
          <mxGeometry x="-80" y="440" width="790" height="510" as="geometry" />
        </mxCell>
        <mxCell id="h3Wn88nU72RHJNOeFfKn-50" value="" style="whiteSpace=wrap;html=1;fillColor=#f5f5f5;fontColor=#333333;strokeColor=#666666;" vertex="1" parent="1">
          <mxGeometry x="140" y="450" width="560" height="380" as="geometry" />
        </mxCell>
        <mxCell id="h3Wn88nU72RHJNOeFfKn-1" value="&lt;span style=&quot;font-size: 15px;&quot;&gt;const.h&lt;/span&gt;&lt;br style=&quot;font-size: 15px;&quot;&gt;&lt;span style=&quot;font-weight: normal;&quot;&gt;常量定义&lt;/span&gt;" style="rounded=0;whiteSpace=wrap;html=1;fontSize=15;fillColor=#fff2cc;strokeColor=#d6b656;fontStyle=1" vertex="1" parent="1">
          <mxGeometry x="560" y="460" width="120" height="60" as="geometry" />
        </mxCell>
        <mxCell id="h3Wn88nU72RHJNOeFfKn-17" style="edgeStyle=orthogonalEdgeStyle;rounded=0;orthogonalLoop=1;jettySize=auto;html=1;exitX=0.25;exitY=1;exitDx=0;exitDy=0;entryX=0.75;entryY=1;entryDx=0;entryDy=0;fillColor=#f8cecc;strokeColor=#b85450;" edge="1" parent="1" source="h3Wn88nU72RHJNOeFfKn-2" target="h3Wn88nU72RHJNOeFfKn-11">
          <mxGeometry relative="1" as="geometry">
            <Array as="points">
              <mxPoint x="-40" y="940" />
              <mxPoint x="560" y="940" />
            </Array>
          </mxGeometry>
        </mxCell>
        <mxCell id="h3Wn88nU72RHJNOeFfKn-41" value="FAT system save to disk" style="edgeLabel;html=1;align=center;verticalAlign=middle;resizable=0;points=[];" vertex="1" connectable="0" parent="h3Wn88nU72RHJNOeFfKn-17">
          <mxGeometry x="-0.0757" y="2" relative="1" as="geometry">
            <mxPoint x="48" y="-8" as="offset" />
          </mxGeometry>
        </mxCell>
        <mxCell id="h3Wn88nU72RHJNOeFfKn-2" value="&lt;font style=&quot;font-size: 15px;&quot;&gt;sys.c&lt;span style=&quot;font-weight: normal;&quot;&gt;&lt;br&gt;虚拟磁盘操作&lt;/span&gt;&lt;br style=&quot;font-size: 15px;&quot;&gt;&lt;/font&gt;" style="whiteSpace=wrap;html=1;fillColor=#dae8fc;strokeColor=#6c8ebf;fontSize=15;fontStyle=1" vertex="1" parent="1">
          <mxGeometry x="-70" y="840" width="120" height="50" as="geometry" />
        </mxCell>
        <mxCell id="h3Wn88nU72RHJNOeFfKn-21" style="edgeStyle=orthogonalEdgeStyle;rounded=0;orthogonalLoop=1;jettySize=auto;html=1;exitX=0.5;exitY=1;exitDx=0;exitDy=0;entryX=0.5;entryY=0;entryDx=0;entryDy=0;" edge="1" parent="1" source="h3Wn88nU72RHJNOeFfKn-3" target="h3Wn88nU72RHJNOeFfKn-2">
          <mxGeometry relative="1" as="geometry" />
        </mxCell>
        <mxCell id="h3Wn88nU72RHJNOeFfKn-36" style="edgeStyle=orthogonalEdgeStyle;rounded=0;orthogonalLoop=1;jettySize=auto;html=1;exitX=1;exitY=0.25;exitDx=0;exitDy=0;entryX=0;entryY=0.25;entryDx=0;entryDy=0;" edge="1" parent="1" source="h3Wn88nU72RHJNOeFfKn-3" target="h3Wn88nU72RHJNOeFfKn-9">
          <mxGeometry relative="1" as="geometry">
            <Array as="points">
              <mxPoint x="120" y="620" />
              <mxPoint x="120" y="620" />
            </Array>
          </mxGeometry>
        </mxCell>
        <mxCell id="h3Wn88nU72RHJNOeFfKn-43" value="use" style="edgeLabel;html=1;align=center;verticalAlign=middle;resizable=0;points=[];" vertex="1" connectable="0" parent="h3Wn88nU72RHJNOeFfKn-36">
          <mxGeometry x="-0.2083" relative="1" as="geometry">
            <mxPoint x="7" y="-10" as="offset" />
          </mxGeometry>
        </mxCell>
        <mxCell id="h3Wn88nU72RHJNOeFfKn-3" value="&lt;font style=&quot;font-size: 15px;&quot;&gt;main.c&lt;br&gt;&lt;span style=&quot;font-weight: normal;&quot;&gt;演示&lt;/span&gt;&lt;br style=&quot;font-size: 15px;&quot;&gt;&lt;/font&gt;" style="whiteSpace=wrap;html=1;fillColor=#dae8fc;strokeColor=#6c8ebf;fontSize=15;fontStyle=1" vertex="1" parent="1">
          <mxGeometry x="-70" y="600" width="120" height="80" as="geometry" />
        </mxCell>
        <mxCell id="h3Wn88nU72RHJNOeFfKn-25" style="edgeStyle=entityRelationEdgeStyle;rounded=0;orthogonalLoop=1;jettySize=auto;html=1;exitX=1;exitY=0.5;exitDx=0;exitDy=0;entryX=0;entryY=0.5;entryDx=0;entryDy=0;strokeColor=#000000;" edge="1" parent="1" source="h3Wn88nU72RHJNOeFfKn-5" target="h3Wn88nU72RHJNOeFfKn-7">
          <mxGeometry relative="1" as="geometry" />
        </mxCell>
        <mxCell id="h3Wn88nU72RHJNOeFfKn-26" style="edgeStyle=entityRelationEdgeStyle;rounded=0;orthogonalLoop=1;jettySize=auto;html=1;exitX=1;exitY=0.5;exitDx=0;exitDy=0;entryX=0;entryY=0.5;entryDx=0;entryDy=0;strokeColor=#000000;" edge="1" parent="1" source="h3Wn88nU72RHJNOeFfKn-5" target="h3Wn88nU72RHJNOeFfKn-12">
          <mxGeometry relative="1" as="geometry" />
        </mxCell>
        <mxCell id="h3Wn88nU72RHJNOeFfKn-45" value="use" style="edgeLabel;html=1;align=center;verticalAlign=middle;resizable=0;points=[];labelBackgroundColor=none;" vertex="1" connectable="0" parent="h3Wn88nU72RHJNOeFfKn-26">
          <mxGeometry x="-0.8777" relative="1" as="geometry">
            <mxPoint y="-8" as="offset" />
          </mxGeometry>
        </mxCell>
        <mxCell id="h3Wn88nU72RHJNOeFfKn-33" style="edgeStyle=orthogonalEdgeStyle;rounded=0;orthogonalLoop=1;jettySize=auto;html=1;exitX=0;exitY=0.5;exitDx=0;exitDy=0;entryX=0.5;entryY=0;entryDx=0;entryDy=0;dashed=1;fillColor=#dae8fc;strokeColor=#6c8ebf;" edge="1" parent="1" source="h3Wn88nU72RHJNOeFfKn-5" target="h3Wn88nU72RHJNOeFfKn-9">
          <mxGeometry relative="1" as="geometry" />
        </mxCell>
        <mxCell id="h3Wn88nU72RHJNOeFfKn-38" value="error、display" style="edgeLabel;html=1;align=center;verticalAlign=middle;resizable=0;points=[];labelBackgroundColor=none;" vertex="1" connectable="0" parent="h3Wn88nU72RHJNOeFfKn-33">
          <mxGeometry x="-0.2029" relative="1" as="geometry">
            <mxPoint y="-10" as="offset" />
          </mxGeometry>
        </mxCell>
        <mxCell id="h3Wn88nU72RHJNOeFfKn-5" value="dir.c&lt;br&gt;&lt;span style=&quot;font-weight: normal;&quot;&gt;目录操作&lt;/span&gt;" style="whiteSpace=wrap;html=1;fillColor=#e1d5e7;strokeColor=#9673a6;fontSize=15;fontStyle=1" vertex="1" parent="1">
          <mxGeometry x="360" y="480" width="120" height="80" as="geometry" />
        </mxCell>
        <mxCell id="h3Wn88nU72RHJNOeFfKn-27" style="edgeStyle=entityRelationEdgeStyle;rounded=0;orthogonalLoop=1;jettySize=auto;html=1;exitX=1;exitY=0.5;exitDx=0;exitDy=0;entryX=0;entryY=0.5;entryDx=0;entryDy=0;strokeColor=#000000;" edge="1" parent="1" source="h3Wn88nU72RHJNOeFfKn-6" target="h3Wn88nU72RHJNOeFfKn-7">
          <mxGeometry relative="1" as="geometry" />
        </mxCell>
        <mxCell id="h3Wn88nU72RHJNOeFfKn-28" style="edgeStyle=entityRelationEdgeStyle;rounded=0;orthogonalLoop=1;jettySize=auto;html=1;exitX=1;exitY=0.5;exitDx=0;exitDy=0;entryX=0;entryY=0.5;entryDx=0;entryDy=0;strokeColor=#000000;" edge="1" parent="1" source="h3Wn88nU72RHJNOeFfKn-6" target="h3Wn88nU72RHJNOeFfKn-12">
          <mxGeometry relative="1" as="geometry" />
        </mxCell>
        <mxCell id="h3Wn88nU72RHJNOeFfKn-46" value="use" style="edgeLabel;html=1;align=center;verticalAlign=middle;resizable=0;points=[];labelBackgroundColor=none;" vertex="1" connectable="0" parent="h3Wn88nU72RHJNOeFfKn-28">
          <mxGeometry x="-0.7306" relative="1" as="geometry">
            <mxPoint x="-1" y="-8" as="offset" />
          </mxGeometry>
        </mxCell>
        <mxCell id="h3Wn88nU72RHJNOeFfKn-6" value="disk.c&lt;br&gt;&lt;span style=&quot;font-weight: normal;&quot;&gt;磁盘操作&lt;/span&gt;" style="whiteSpace=wrap;html=1;fillColor=#e1d5e7;strokeColor=#9673a6;fontSize=15;fontStyle=1" vertex="1" parent="1">
          <mxGeometry x="360" y="600" width="120" height="80" as="geometry" />
        </mxCell>
        <mxCell id="h3Wn88nU72RHJNOeFfKn-31" style="edgeStyle=orthogonalEdgeStyle;rounded=0;orthogonalLoop=1;jettySize=auto;html=1;exitX=0.5;exitY=0;exitDx=0;exitDy=0;entryX=0.5;entryY=1;entryDx=0;entryDy=0;" edge="1" parent="1" source="h3Wn88nU72RHJNOeFfKn-7" target="h3Wn88nU72RHJNOeFfKn-1">
          <mxGeometry relative="1" as="geometry" />
        </mxCell>
        <mxCell id="h3Wn88nU72RHJNOeFfKn-49" value="use" style="edgeLabel;html=1;align=center;verticalAlign=middle;resizable=0;points=[];labelBackgroundColor=none;" vertex="1" connectable="0" parent="h3Wn88nU72RHJNOeFfKn-31">
          <mxGeometry x="-0.2468" y="1" relative="1" as="geometry">
            <mxPoint x="11" y="-3" as="offset" />
          </mxGeometry>
        </mxCell>
        <mxCell id="h3Wn88nU72RHJNOeFfKn-7" value="fat16.h&lt;br&gt;&lt;span style=&quot;font-weight: normal;&quot;&gt;FAT结构体定义&lt;/span&gt;" style="whiteSpace=wrap;html=1;fillColor=#ffe6cc;strokeColor=#d79b00;fontSize=15;fontStyle=1" vertex="1" parent="1">
          <mxGeometry x="560" y="560" width="120" height="60" as="geometry" />
        </mxCell>
        <mxCell id="h3Wn88nU72RHJNOeFfKn-29" style="edgeStyle=entityRelationEdgeStyle;rounded=0;orthogonalLoop=1;jettySize=auto;html=1;exitX=1;exitY=0.5;exitDx=0;exitDy=0;entryX=0;entryY=0.5;entryDx=0;entryDy=0;strokeColor=#000000;" edge="1" parent="1" source="h3Wn88nU72RHJNOeFfKn-8" target="h3Wn88nU72RHJNOeFfKn-12">
          <mxGeometry relative="1" as="geometry" />
        </mxCell>
        <mxCell id="h3Wn88nU72RHJNOeFfKn-30" style="edgeStyle=entityRelationEdgeStyle;rounded=0;orthogonalLoop=1;jettySize=auto;html=1;exitX=1;exitY=0.5;exitDx=0;exitDy=0;entryX=0;entryY=0.5;entryDx=0;entryDy=0;strokeColor=#000000;" edge="1" parent="1" source="h3Wn88nU72RHJNOeFfKn-8" target="h3Wn88nU72RHJNOeFfKn-7">
          <mxGeometry relative="1" as="geometry" />
        </mxCell>
        <mxCell id="h3Wn88nU72RHJNOeFfKn-47" value="use" style="edgeLabel;html=1;align=center;verticalAlign=middle;resizable=0;points=[];labelBackgroundColor=none;" vertex="1" connectable="0" parent="h3Wn88nU72RHJNOeFfKn-30">
          <mxGeometry x="-0.895" relative="1" as="geometry">
            <mxPoint x="2" y="-8" as="offset" />
          </mxGeometry>
        </mxCell>
        <mxCell id="h3Wn88nU72RHJNOeFfKn-34" style="edgeStyle=orthogonalEdgeStyle;rounded=0;orthogonalLoop=1;jettySize=auto;html=1;exitX=0;exitY=0.5;exitDx=0;exitDy=0;entryX=0.5;entryY=1;entryDx=0;entryDy=0;fillColor=#dae8fc;strokeColor=#6c8ebf;dashed=1;" edge="1" parent="1" source="h3Wn88nU72RHJNOeFfKn-8" target="h3Wn88nU72RHJNOeFfKn-9">
          <mxGeometry relative="1" as="geometry" />
        </mxCell>
        <mxCell id="h3Wn88nU72RHJNOeFfKn-39" value="error、display" style="edgeLabel;html=1;align=center;verticalAlign=middle;resizable=0;points=[];labelBackgroundColor=none;" vertex="1" connectable="0" parent="h3Wn88nU72RHJNOeFfKn-34">
          <mxGeometry x="-0.2245" y="1" relative="1" as="geometry">
            <mxPoint y="-11" as="offset" />
          </mxGeometry>
        </mxCell>
        <mxCell id="h3Wn88nU72RHJNOeFfKn-8" value="file.c&lt;br&gt;&lt;span style=&quot;font-weight: normal;&quot;&gt;文件操作&lt;/span&gt;" style="whiteSpace=wrap;html=1;fillColor=#e1d5e7;strokeColor=#9673a6;fontSize=15;fontStyle=1" vertex="1" parent="1">
          <mxGeometry x="360" y="720" width="120" height="80" as="geometry" />
        </mxCell>
        <mxCell id="h3Wn88nU72RHJNOeFfKn-22" style="edgeStyle=entityRelationEdgeStyle;rounded=0;orthogonalLoop=1;jettySize=auto;html=1;exitX=1;exitY=0.5;exitDx=0;exitDy=0;entryX=0;entryY=0.5;entryDx=0;entryDy=0;" edge="1" parent="1" source="h3Wn88nU72RHJNOeFfKn-9" target="h3Wn88nU72RHJNOeFfKn-5">
          <mxGeometry relative="1" as="geometry" />
        </mxCell>
        <mxCell id="h3Wn88nU72RHJNOeFfKn-44" value="use" style="edgeLabel;html=1;align=center;verticalAlign=middle;resizable=0;points=[];labelBackgroundColor=none;" vertex="1" connectable="0" parent="h3Wn88nU72RHJNOeFfKn-22">
          <mxGeometry x="0.0504" relative="1" as="geometry">
            <mxPoint x="-26" y="58" as="offset" />
          </mxGeometry>
        </mxCell>
        <mxCell id="h3Wn88nU72RHJNOeFfKn-23" style="edgeStyle=entityRelationEdgeStyle;rounded=0;orthogonalLoop=1;jettySize=auto;html=1;exitX=1;exitY=0.5;exitDx=0;exitDy=0;entryX=0;entryY=0.5;entryDx=0;entryDy=0;" edge="1" parent="1" source="h3Wn88nU72RHJNOeFfKn-9" target="h3Wn88nU72RHJNOeFfKn-6">
          <mxGeometry relative="1" as="geometry" />
        </mxCell>
        <mxCell id="h3Wn88nU72RHJNOeFfKn-24" style="edgeStyle=entityRelationEdgeStyle;rounded=0;orthogonalLoop=1;jettySize=auto;html=1;exitX=1;exitY=0.5;exitDx=0;exitDy=0;entryX=0;entryY=0.5;entryDx=0;entryDy=0;" edge="1" parent="1" source="h3Wn88nU72RHJNOeFfKn-9" target="h3Wn88nU72RHJNOeFfKn-8">
          <mxGeometry relative="1" as="geometry" />
        </mxCell>
        <mxCell id="h3Wn88nU72RHJNOeFfKn-37" style="edgeStyle=orthogonalEdgeStyle;rounded=0;orthogonalLoop=1;jettySize=auto;html=1;exitX=0;exitY=0.75;exitDx=0;exitDy=0;entryX=1;entryY=0.75;entryDx=0;entryDy=0;fillColor=#dae8fc;strokeColor=#6c8ebf;dashed=1;" edge="1" parent="1" source="h3Wn88nU72RHJNOeFfKn-9" target="h3Wn88nU72RHJNOeFfKn-3">
          <mxGeometry relative="1" as="geometry" />
        </mxCell>
        <mxCell id="h3Wn88nU72RHJNOeFfKn-40" value="error、display" style="edgeLabel;html=1;align=center;verticalAlign=middle;resizable=0;points=[];" vertex="1" connectable="0" parent="h3Wn88nU72RHJNOeFfKn-37">
          <mxGeometry x="-0.2694" relative="1" as="geometry">
            <mxPoint x="-20" y="-8" as="offset" />
          </mxGeometry>
        </mxCell>
        <mxCell id="h3Wn88nU72RHJNOeFfKn-9" value="kernel.h&lt;br&gt;&lt;span style=&quot;font-weight: normal;&quot;&gt;内核函数声明&lt;/span&gt;" style="whiteSpace=wrap;html=1;fillColor=#e1d5e7;strokeColor=#9673a6;fontSize=15;fontStyle=1" vertex="1" parent="1">
          <mxGeometry x="160" y="600" width="120" height="80" as="geometry" />
        </mxCell>
        <mxCell id="h3Wn88nU72RHJNOeFfKn-16" style="edgeStyle=orthogonalEdgeStyle;rounded=0;orthogonalLoop=1;jettySize=auto;html=1;exitX=0.25;exitY=1;exitDx=0;exitDy=0;entryX=0.75;entryY=1;entryDx=0;entryDy=0;fillColor=#d5e8d4;strokeColor=#82b366;" edge="1" parent="1" source="h3Wn88nU72RHJNOeFfKn-11" target="h3Wn88nU72RHJNOeFfKn-2">
          <mxGeometry relative="1" as="geometry">
            <Array as="points">
              <mxPoint x="260" y="920" />
              <mxPoint x="20" y="920" />
            </Array>
          </mxGeometry>
        </mxCell>
        <mxCell id="h3Wn88nU72RHJNOeFfKn-42" value="FAT system load from disk" style="edgeLabel;html=1;align=center;verticalAlign=middle;resizable=0;points=[];" vertex="1" connectable="0" parent="h3Wn88nU72RHJNOeFfKn-16">
          <mxGeometry x="-0.1836" y="-1" relative="1" as="geometry">
            <mxPoint x="-47" y="-9" as="offset" />
          </mxGeometry>
        </mxCell>
        <mxCell id="h3Wn88nU72RHJNOeFfKn-11" value="DISK" style="rounded=1;whiteSpace=wrap;html=1;fillColor=#d5e8d4;strokeColor=#82b366;fontSize=15;fontStyle=1" vertex="1" parent="1">
          <mxGeometry x="140" y="840" width="560" height="50" as="geometry" />
        </mxCell>
        <mxCell id="h3Wn88nU72RHJNOeFfKn-14" style="edgeStyle=orthogonalEdgeStyle;rounded=0;orthogonalLoop=1;jettySize=auto;html=1;exitX=0.5;exitY=1;exitDx=0;exitDy=0;entryX=0.5;entryY=0;entryDx=0;entryDy=0;" edge="1" parent="1" source="h3Wn88nU72RHJNOeFfKn-12" target="h3Wn88nU72RHJNOeFfKn-13">
          <mxGeometry relative="1" as="geometry" />
        </mxCell>
        <mxCell id="h3Wn88nU72RHJNOeFfKn-48" value="use" style="edgeLabel;html=1;align=center;verticalAlign=middle;resizable=0;points=[];labelBackgroundColor=none;" vertex="1" connectable="0" parent="h3Wn88nU72RHJNOeFfKn-14">
          <mxGeometry x="-0.2932" relative="1" as="geometry">
            <mxPoint x="10" y="4" as="offset" />
          </mxGeometry>
        </mxCell>
        <mxCell id="h3Wn88nU72RHJNOeFfKn-12" value="stack.h&lt;br&gt;&lt;span style=&quot;font-weight: normal;&quot;&gt;栈定义&lt;/span&gt;" style="whiteSpace=wrap;html=1;fillColor=#ffe6cc;strokeColor=#d79b00;fontSize=15;fontStyle=1" vertex="1" parent="1">
          <mxGeometry x="560" y="660" width="120" height="60" as="geometry" />
        </mxCell>
        <mxCell id="h3Wn88nU72RHJNOeFfKn-13" value="stack.c&lt;br&gt;&lt;span style=&quot;font-weight: normal;&quot;&gt;栈实现&lt;/span&gt;" style="whiteSpace=wrap;html=1;fillColor=#fff2cc;strokeColor=#d6b656;fontSize=15;fontStyle=1" vertex="1" parent="1">
          <mxGeometry x="560" y="760" width="120" height="60" as="geometry" />
        </mxCell>
        <mxCell id="h3Wn88nU72RHJNOeFfKn-56" value="" style="group" vertex="1" connectable="0" parent="1">
          <mxGeometry x="-50" y="490" width="150" height="60" as="geometry" />
        </mxCell>
        <mxCell id="h3Wn88nU72RHJNOeFfKn-54" value="&lt;font style=&quot;font-size: 20px;&quot;&gt;&lt;b&gt;FAT SYSTEM&lt;/b&gt;&lt;/font&gt;" style="text;html=1;align=center;verticalAlign=middle;resizable=0;points=[];autosize=1;strokeColor=none;fillColor=none;" vertex="1" parent="h3Wn88nU72RHJNOeFfKn-56">
          <mxGeometry width="150" height="40" as="geometry" />
        </mxCell>
        <mxCell id="h3Wn88nU72RHJNOeFfKn-55" value="&lt;font style=&quot;font-size: 15px;&quot;&gt;GUJIHAO&lt;/font&gt;" style="text;html=1;align=center;verticalAlign=middle;resizable=0;points=[];autosize=1;strokeColor=none;fillColor=none;" vertex="1" parent="h3Wn88nU72RHJNOeFfKn-56">
          <mxGeometry x="30" y="30" width="90" height="30" as="geometry" />
        </mxCell>
      </root>
    </mxGraphModel>
  </diagram>
</mxfile>
